<svg id="visual" viewBox="0 0 900 600" width="900" height="600" xmlns="http://www.w3.org/2000/svg" xmlns:xlink="http://www.w3.org/1999/xlink" version="1.1"><path d="M0 163L30 164C60 165 120 167 180 164C240 161 300 153 360 143C420 133 480 121 540 134C600 147 660 185 720 194C780 203 840 183 870 173L900 163L900 0L870 0C840 0 780 0 720 0C660 0 600 0 540 0C480 0 420 0 360 0C300 0 240 0 180 0C120 0 60 0 30 0L0 0Z" fill="#6198ff"></path><path d="M0 307L30 305C60 303 120 299 180 295C240 291 300 287 360 298C420 309 480 335 540 350C600 365 660 369 720 370C780 371 840 369 870 368L900 367L900 161L870 171C840 181 780 201 720 192C660 183 600 145 540 132C480 119 420 131 360 141C300 151 240 159 180 162C120 165 60 163 30 162L0 161Z" fill="#3c80ff"></path><path d="M0 421L30 423C60 425 120 429 180 431C240 433 300 433 360 438C420 443 480 453 540 454C600 455 660 447 720 445C780 443 840 447 870 449L900 451L900 365L870 366C840 367 780 369 720 368C660 367 600 363 540 348C480 333 420 307 360 296C300 285 240 289 180 293C120 297 60 301 30 303L0 305Z" fill="#0066ff"></path><path d="M0 523L30 526C60 529 120 535 180 540C240 545 300 549 360 553C420 557 480 561 540 563C600 565 660 565 720 564C780 563 840 561 870 560L900 559L900 449L870 447C840 445 780 441 720 443C660 445 600 453 540 452C480 451 420 441 360 436C300 431 240 431 180 429C120 427 60 423 30 421L0 419Z" fill="#0059dd"></path><path d="M0 601L30 601C60 601 120 601 180 601C240 601 300 601 360 601C420 601 480 601 540 601C600 601 660 601 720 601C780 601 840 601 870 601L900 601L900 557L870 558C840 559 780 561 720 562C660 563 600 563 540 561C480 559 420 555 360 551C300 547 240 543 180 538C120 533 60 527 30 524L0 521Z" fill="#004cbb"></path></svg>